<svg width="22" height="26" viewBox="0 0 22 26" fill="none" xmlns="http://www.w3.org/2000/svg">
<path d="M14.5 1.33325V2.96659C14.5 3.61998 14.5 3.94668 14.3729 4.19624C14.261 4.41576 14.0825 4.59424 13.863 4.70609C13.6134 4.83325 13.2867 4.83325 12.6334 4.83325H9.36669C8.71329 4.83325 8.3866 4.83325 8.13703 4.70609C7.91751 4.59424 7.73903 4.41576 7.62718 4.19624C7.50002 3.94668 7.50002 3.61998 7.50002 2.96659V1.33325M11 8.33325L11.0117 16.4999M11 19.9999H11.0117M5.40002 24.6666H16.6C17.9068 24.6666 18.5602 24.6666 19.0593 24.4123C19.4984 24.1886 19.8553 23.8316 20.079 23.3926C20.3334 22.8934 20.3334 22.24 20.3334 20.9333V5.06658C20.3334 3.7598 20.3334 3.1064 20.079 2.60727C19.8553 2.16823 19.4984 1.81127 19.0593 1.58757C18.5602 1.33325 17.9068 1.33325 16.6 1.33325H5.40002C4.09323 1.33325 3.43984 1.33325 2.94071 1.58757C2.50166 1.81127 2.14471 2.16823 1.92101 2.60727C1.66669 3.1064 1.66669 3.7598 1.66669 5.06659V20.9333C1.66669 22.24 1.66669 22.8934 1.92101 23.3926C2.14471 23.8316 2.50166 24.1886 2.94071 24.4123C3.43984 24.6666 4.09323 24.6666 5.40002 24.6666Z" stroke="#444CE7" stroke-width="2.33333" stroke-linecap="round" stroke-linejoin="round"/>
</svg>
