<svg width="26" height="22" viewBox="0 0 26 22" fill="none" xmlns="http://www.w3.org/2000/svg">
<path d="M2.49998 15.6667V5.40008C2.49998 4.09329 2.49998 3.4399 2.7543 2.94077C2.978 2.50173 3.33496 2.14477 3.774 1.92107C4.27313 1.66675 4.92652 1.66675 6.23331 1.66675H19.7666C21.0734 1.66675 21.7268 1.66675 22.226 1.92107C22.665 2.14477 23.022 2.50173 23.2457 2.94077C23.5 3.4399 23.5 4.09329 23.5 5.40008V15.6667H17.2732C16.9878 15.6667 16.8451 15.6667 16.7109 15.699C16.5918 15.7276 16.478 15.7747 16.3736 15.8387C16.2559 15.9108 16.155 16.0117 15.9532 16.2135L15.88 16.2867C15.6783 16.4885 15.5774 16.5893 15.4596 16.6615C15.3553 16.7255 15.2415 16.7726 15.1224 16.8012C14.9881 16.8334 14.8455 16.8334 14.5601 16.8334H11.4398C11.1545 16.8334 11.0118 16.8334 10.8775 16.8012C10.7585 16.7726 10.6447 16.7255 10.5403 16.6615C10.4226 16.5893 10.3217 16.4885 10.1199 16.2867L10.0467 16.2135C9.84494 16.0117 9.74405 15.9108 9.62631 15.8387C9.52193 15.7747 9.40813 15.7276 9.28908 15.699C9.15481 15.6667 9.01214 15.6667 8.72678 15.6667H2.49998ZM2.49998 15.6667C1.85565 15.6667 1.33331 16.1891 1.33331 16.8334V17.2223C1.33331 17.9456 1.33331 18.3073 1.41282 18.604C1.62858 19.4092 2.25752 20.0382 3.06274 20.2539C3.35946 20.3334 3.72111 20.3334 4.44442 20.3334H21.5555C22.2788 20.3334 22.6405 20.3334 22.9372 20.2539C23.7424 20.0382 24.3714 19.4092 24.5871 18.604C24.6666 18.3073 24.6666 17.9456 24.6666 17.2223C24.6666 16.8606 24.6666 16.6798 24.6269 16.5315C24.519 16.1289 24.2045 15.8144 23.8019 15.7065C23.6536 15.6667 23.4727 15.6667 23.1111 15.6667H22.3333" stroke="#444CE7" stroke-width="2.33333" stroke-linecap="round" stroke-linejoin="round"/>
</svg>
