<svg width="18" height="26" viewBox="0 0 18 26" fill="none" xmlns="http://www.w3.org/2000/svg">
<path d="M14.8334 20.5833L14.4403 21.9589C14.163 22.9295 14.0243 23.4148 13.7413 23.775C13.4914 24.0929 13.1632 24.3405 12.7889 24.4934C12.3648 24.6666 11.8601 24.6666 10.8506 24.6666H7.14941C6.13998 24.6666 5.63526 24.6666 5.21114 24.4934C4.8368 24.3405 4.50861 24.0929 4.25876 23.775C3.97569 23.4148 3.83704 22.9295 3.55972 21.9589L3.16669 20.5833M14.8334 5.41659L14.4403 4.04096C14.163 3.07037 14.0243 2.58507 13.7413 2.22486C13.4914 1.90692 13.1632 1.65937 12.7889 1.50647C12.3648 1.33325 11.8601 1.33325 10.8506 1.33325H7.14941C6.13998 1.33325 5.63526 1.33325 5.21114 1.50647C4.8368 1.65937 4.50861 1.90692 4.25876 2.22486C3.97569 2.58507 3.83704 3.07037 3.55972 4.04096L3.16669 5.41659M9.00002 9.49992V12.9999L10.75 14.7499M5.15002 20.5833H12.85C14.1568 20.5833 14.8102 20.5833 15.3093 20.3289C15.7484 20.1052 16.1053 19.7483 16.329 19.3092C16.5834 18.8101 16.5834 18.1567 16.5834 16.8499V9.14992C16.5834 7.84313 16.5834 7.18973 16.329 6.69061C16.1053 6.25156 15.7484 5.89461 15.3093 5.6709C14.8102 5.41659 14.1568 5.41659 12.85 5.41659H5.15002C3.84323 5.41659 3.18984 5.41659 2.69071 5.6709C2.25166 5.89461 1.89471 6.25156 1.67101 6.69061C1.41669 7.18973 1.41669 7.84313 1.41669 9.14992V16.8499C1.41669 18.1567 1.41669 18.8101 1.67101 19.3092C1.89471 19.7483 2.25166 20.1052 2.69071 20.3289C3.18984 20.5833 3.84323 20.5833 5.15002 20.5833Z" stroke="#444CE7" stroke-width="2.33333" stroke-linecap="round" stroke-linejoin="round"/>
</svg>
