<svg width="136" height="44" viewBox="0 0 136 44" fill="none" xmlns="http://www.w3.org/2000/svg">
<path d="M61.2053 30.0848H54.535C54.251 30.0848 54.0204 29.8551 54.0204 29.5702C54.0204 29.2854 54.2502 29.0557 54.535 29.0557H61.2053C61.4892 29.0557 61.7199 29.2854 61.7199 29.5702C61.7199 29.8551 61.4901 30.0848 61.2053 30.0848Z" fill="white"/>
<path d="M60.0878 2.03809H55.6523C55.2287 2.03809 54.8853 2.38151 54.8853 2.80515V2.80602C54.8853 3.22966 55.2287 3.57309 55.6523 3.57309H60.0878C60.5115 3.57309 60.8549 3.22966 60.8549 2.80602V2.80515C60.8549 2.38151 60.5115 2.03809 60.0878 2.03809Z" fill="white"/>
<path d="M66.7992 8.35121V3.41247C66.7992 1.53063 65.2686 0 63.3867 0H52.3526C50.4707 0 48.9401 1.53063 48.9401 3.41247V5.50573C48.7985 5.50573 48.6832 5.62105 48.6832 5.76259V7.86983C48.6832 8.01136 48.7985 8.12668 48.9401 8.12668V9.08769C48.7985 9.08769 48.6832 9.20301 48.6832 9.34454V11.4518C48.6832 11.5933 48.7985 11.7086 48.9401 11.7086V17.1952C48.9401 17.4791 49.1698 17.7097 49.4547 17.7097C49.4608 17.7097 49.4669 17.708 49.4739 17.708H53.0777C53.2891 17.708 53.4787 17.5787 53.5564 17.3821L55.9301 11.3609L57.4957 22.7725C57.5254 22.9892 57.6879 23.163 57.902 23.2067C57.936 23.2137 57.971 23.2172 58.0051 23.2172C58.1833 23.2172 58.3519 23.1246 58.4463 22.9673L61.8229 17.3306H65.7718V28.5875C65.7718 29.9024 64.7024 30.9717 63.3876 30.9717H52.3534C51.0386 30.9717 49.9692 29.9024 49.9692 28.5875V20.439C49.9692 20.1551 49.7395 19.9244 49.4547 19.9244C49.1698 19.9244 48.9401 20.1542 48.9401 20.439V28.5875C48.9401 30.4694 50.4707 32 52.3526 32H63.3867C65.2686 32 66.7992 30.4694 66.7992 28.5875V16.8169C66.7992 16.5329 66.5694 16.3023 66.2846 16.3023H61.5302C61.3494 16.3023 61.1825 16.3975 61.089 16.5521L58.3143 21.1842L56.6806 9.27465C56.6492 9.04314 56.4648 8.86229 56.2324 8.83433C55.9983 8.8055 55.7781 8.9383 55.6925 9.15584L52.7265 16.6797H49.9684V3.41247C49.9684 2.09763 51.0377 1.02828 52.3526 1.02828H63.3867C64.7016 1.02828 65.7709 2.09763 65.7709 3.41247V13.7014C65.7709 13.9854 66.0007 14.216 66.2855 14.216C66.5703 14.216 66.8001 13.9862 66.8001 13.7014V10.973C66.9416 10.973 67.0569 10.8577 67.0569 10.7162V8.60893C67.0569 8.4674 66.9416 8.35208 66.8001 8.35208L66.7992 8.35121Z" fill="white"/>
<path d="M2.79305 10.0111C1.97008 10.0111 1.29912 9.76736 0.779294 9.28074C0.259474 8.79325 0 8.19305 0 7.4784C0 6.76376 0.259474 6.13648 0.779294 5.65947C1.29912 5.18333 1.9692 4.94482 2.79305 4.94482C3.61691 4.94482 4.28699 5.18333 4.80682 5.65947C5.32664 6.13561 5.58611 6.74192 5.58611 7.4784C5.58611 8.21489 5.32664 8.79325 4.80682 9.28074C4.28699 9.76824 3.61603 10.0111 2.79305 10.0111ZM0.519821 28.4888V12.1218H5.06629V28.4888H0.519821Z" fill="white"/>
<path d="M8.3573 28.4879V5.75732H22.0631V9.42665H12.9038V15.3046H20.6382V18.8769H12.9038V28.4888H8.3573V28.4879Z" fill="white"/>
<path d="M26.752 10.0111C25.9291 10.0111 25.2581 9.76736 24.7383 9.28074C24.2185 8.79412 23.959 8.19305 23.959 7.47841C23.959 6.76376 24.2185 6.13648 24.7383 5.65947C25.2581 5.18333 25.9282 4.94482 26.752 4.94482C27.5759 4.94482 28.246 5.18333 28.7658 5.65947C29.2856 6.13561 29.5451 6.74192 29.5451 7.47841C29.5451 8.21489 29.2856 8.79325 28.7658 9.28074C28.246 9.76824 27.575 10.0111 26.752 10.0111Z" fill="white"/>
<path d="M29.0253 28.488L34.9355 20.3046L29.0253 12.1211H33.9291L39.7397 20.3046L33.9291 28.488H29.0253Z" fill="white"/>
<path d="M37.9679 24.5757L40.7452 28.4879H45.649L40.3748 21.1851L37.9679 24.5757Z" fill="white"/>
<path d="M45.649 12.1221H40.7452L37.9679 16.0343L40.3748 19.4249L45.649 12.1221Z" fill="white"/>
<path d="M70.5637 28.4599V5.56152H73.8347V28.4599H70.5637ZM73.279 18.1228V15.4407H85.8403V18.1228H73.279ZM85.1205 28.4599V5.56152H88.3914V28.4599H85.1205Z" fill="white"/>
<path d="M98.8568 28.8619C97.2869 28.8619 95.8908 28.5019 94.6695 27.782C93.4481 27.0622 92.4941 26.0592 91.8074 24.7723C91.1207 23.4854 90.7773 21.9915 90.7773 20.2905C90.7773 18.5895 91.1207 17.0248 91.8074 15.7274C92.4941 14.4301 93.4481 13.4158 94.6695 12.6854C95.8908 11.955 97.3079 11.5898 98.9224 11.5898C100.537 11.5898 101.921 11.9498 103.077 12.6697C104.232 13.3896 105.126 14.3436 105.759 15.5317C106.391 16.7208 106.707 18.0339 106.707 19.4736C106.707 19.6921 106.702 19.9262 106.691 20.1769C106.679 20.4277 106.663 20.7064 106.642 21.0113H93.165V18.6891H103.437C103.371 17.3149 102.913 16.2411 102.062 15.4671C101.211 14.693 100.153 14.306 98.8892 14.306C97.9946 14.306 97.1768 14.5078 96.436 14.9115C95.6942 15.3151 95.1002 15.9039 94.6528 16.678C94.2055 17.452 93.9819 18.4279 93.9819 19.6056V20.5212C93.9819 21.7425 94.2055 22.7734 94.6528 23.6121C95.0993 24.4517 95.6942 25.0842 96.436 25.5097C97.1768 25.9352 97.9841 26.1475 98.8568 26.1475C99.9035 26.1475 100.765 25.9186 101.441 25.4608C102.116 25.003 102.619 24.3809 102.946 23.5964H106.216C105.933 24.5993 105.453 25.4992 104.778 26.2951C104.101 27.091 103.267 27.7183 102.275 28.1761C101.283 28.6339 100.144 28.8627 98.8568 28.8627V28.8619Z" fill="white"/>
<path d="M109.215 28.4598V11.9732H112.159L112.453 15.0808C112.824 14.3399 113.304 13.7127 113.892 13.1998C114.481 12.6879 115.173 12.2895 115.97 12.0055C116.766 11.7225 117.676 11.5801 118.701 11.5801V15.0476H117.523C116.847 15.0476 116.203 15.1297 115.593 15.2931C114.983 15.4565 114.443 15.7343 113.974 16.1274C113.505 16.5197 113.14 17.0544 112.879 17.7306C112.617 18.4068 112.487 19.2463 112.487 20.2493V28.4598H109.216H109.215Z" fill="white"/>
<path d="M127.357 28.8619C125.787 28.8619 124.391 28.5019 123.17 27.782C121.948 27.0622 120.994 26.0592 120.307 24.7723C119.621 23.4854 119.277 21.9915 119.277 20.2905C119.277 18.5895 119.621 17.0248 120.307 15.7274C120.994 14.4301 121.948 13.4158 123.17 12.6854C124.391 11.955 125.808 11.5898 127.422 11.5898C129.037 11.5898 130.421 11.9498 131.577 12.6697C132.733 13.3896 133.626 14.3436 134.259 15.5317C134.891 16.7208 135.208 18.0339 135.208 19.4736C135.208 19.6921 135.202 19.9262 135.191 20.1769C135.18 20.4277 135.163 20.7064 135.142 21.0113H121.665V18.6891H131.937C131.871 17.3149 131.413 16.2411 130.562 15.4671C129.711 14.693 128.653 14.306 127.389 14.306C126.495 14.306 125.677 14.5078 124.936 14.9115C124.194 15.3151 123.6 15.9039 123.153 16.678C122.706 17.452 122.482 18.4279 122.482 19.6056V20.5212C122.482 21.7425 122.706 22.7734 123.153 23.6121C123.599 24.4517 124.194 25.0842 124.936 25.5097C125.677 25.9352 126.484 26.1475 127.357 26.1475C128.404 26.1475 129.265 25.9186 129.941 25.4608C130.617 25.003 131.119 24.3809 131.446 23.5964H134.717C134.433 24.5993 133.953 25.4992 133.278 26.2951C132.601 27.091 131.767 27.7183 130.776 28.1761C129.783 28.6339 128.644 28.8627 127.357 28.8627V28.8619Z" fill="white"/>
<path d="M29.0252 16.3654V12.1221H24.4788V28.4881H29.0252V24.2413H25.2266V16.3654H29.0252Z" fill="white"/>
<path d="M31.344 35.424V41H30.616V35.424H31.344ZM34.7208 36.536C35.2541 36.536 35.6861 36.6987 36.0168 37.024C36.3474 37.344 36.5128 37.808 36.5128 38.416V41H35.7928V38.52C35.7928 38.0827 35.6834 37.7493 35.4648 37.52C35.2461 37.2853 34.9474 37.168 34.5688 37.168C34.1848 37.168 33.8781 37.288 33.6488 37.528C33.4248 37.768 33.3128 38.1173 33.3128 38.576V41H32.5848V36.616H33.3128V37.24C33.4568 37.016 33.6514 36.8427 33.8968 36.72C34.1474 36.5973 34.4221 36.536 34.7208 36.536ZM39.2539 41.072C38.9179 41.072 38.6166 41.016 38.3499 40.904C38.0833 40.7867 37.8726 40.6267 37.7179 40.424C37.5633 40.216 37.4779 39.9787 37.4619 39.712H38.2139C38.2353 39.9307 38.3366 40.1093 38.5179 40.248C38.7046 40.3867 38.9473 40.456 39.2459 40.456C39.5233 40.456 39.7419 40.3947 39.9019 40.272C40.0619 40.1493 40.1419 39.9947 40.1419 39.808C40.1419 39.616 40.0566 39.4747 39.8859 39.384C39.7153 39.288 39.4513 39.1947 39.0939 39.104C38.7686 39.0187 38.5019 38.9333 38.2939 38.848C38.0913 38.7573 37.9153 38.6267 37.7659 38.456C37.6219 38.28 37.5499 38.0507 37.5499 37.768C37.5499 37.544 37.6166 37.3387 37.7499 37.152C37.8833 36.9653 38.0726 36.8187 38.3179 36.712C38.5633 36.6 38.8433 36.544 39.1579 36.544C39.6433 36.544 40.0353 36.6667 40.3339 36.912C40.6326 37.1573 40.7926 37.4933 40.8139 37.92H40.0859C40.0699 37.6907 39.9766 37.5067 39.8059 37.368C39.6406 37.2293 39.4166 37.16 39.1339 37.16C38.8726 37.16 38.6646 37.216 38.5099 37.328C38.3553 37.44 38.2779 37.5867 38.2779 37.768C38.2779 37.912 38.3233 38.032 38.4139 38.128C38.5099 38.2187 38.6273 38.2933 38.7659 38.352C38.9099 38.4053 39.1073 38.4667 39.3579 38.536C39.6726 38.6213 39.9286 38.7067 40.1259 38.792C40.3233 38.872 40.4913 38.9947 40.6299 39.16C40.7739 39.3253 40.8486 39.5413 40.8539 39.808C40.8539 40.048 40.7873 40.264 40.6539 40.456C40.5206 40.648 40.3313 40.8 40.0859 40.912C39.8459 41.0187 39.5686 41.072 39.2539 41.072ZM42.7696 37.216V39.8C42.7696 40.0133 42.815 40.1653 42.9056 40.256C42.9963 40.3413 43.1536 40.384 43.3776 40.384H43.9136V41H43.2576C42.8523 41 42.5483 40.9067 42.3456 40.72C42.143 40.5333 42.0416 40.2267 42.0416 39.8V37.216H41.4736V36.616H42.0416V35.512H42.7696V36.616H43.9136V37.216H42.7696ZM44.5237 38.792C44.5237 38.344 44.6144 37.952 44.7957 37.616C44.977 37.2747 45.225 37.0107 45.5397 36.824C45.8597 36.6373 46.2144 36.544 46.6037 36.544C46.9877 36.544 47.321 36.6267 47.6037 36.792C47.8864 36.9573 48.097 37.1653 48.2357 37.416V36.616H48.9717V41H48.2357V40.184C48.0917 40.44 47.8757 40.6533 47.5877 40.824C47.305 40.9893 46.9744 41.072 46.5957 41.072C46.2064 41.072 45.8544 40.976 45.5397 40.784C45.225 40.592 44.977 40.3227 44.7957 39.976C44.6144 39.6293 44.5237 39.2347 44.5237 38.792ZM48.2357 38.8C48.2357 38.4693 48.169 38.1813 48.0357 37.936C47.9024 37.6907 47.721 37.504 47.4917 37.376C47.2677 37.2427 47.0197 37.176 46.7477 37.176C46.4757 37.176 46.2277 37.24 46.0037 37.368C45.7797 37.496 45.601 37.6827 45.4677 37.928C45.3344 38.1733 45.2677 38.4613 45.2677 38.792C45.2677 39.128 45.3344 39.4213 45.4677 39.672C45.601 39.9173 45.7797 40.1067 46.0037 40.24C46.2277 40.368 46.4757 40.432 46.7477 40.432C47.0197 40.432 47.2677 40.368 47.4917 40.24C47.721 40.1067 47.9024 39.9173 48.0357 39.672C48.169 39.4213 48.2357 39.1307 48.2357 38.8ZM52.3379 36.536C52.8713 36.536 53.3033 36.6987 53.6339 37.024C53.9646 37.344 54.1299 37.808 54.1299 38.416V41H53.4099V38.52C53.4099 38.0827 53.3006 37.7493 53.0819 37.52C52.8633 37.2853 52.5646 37.168 52.1859 37.168C51.8019 37.168 51.4953 37.288 51.2659 37.528C51.0419 37.768 50.9299 38.1173 50.9299 38.576V41H50.2019V36.616H50.9299V37.24C51.0739 37.016 51.2686 36.8427 51.5139 36.72C51.7646 36.5973 52.0393 36.536 52.3379 36.536ZM56.2071 37.216V39.8C56.2071 40.0133 56.2525 40.1653 56.3431 40.256C56.4338 40.3413 56.5911 40.384 56.8151 40.384H57.3511V41H56.6951C56.2898 41 55.9858 40.9067 55.7831 40.72C55.5805 40.5333 55.4791 40.2267 55.4791 39.8V37.216H54.9111V36.616H55.4791V35.512H56.2071V36.616H57.3511V37.216H56.2071ZM61.094 36.016V37.88H63.126V38.48H61.094V40.4H63.366V41H60.366V35.416H63.366V36.016H61.094ZM65.1956 35.08V41H64.4676V35.08H65.1956ZM70.4363 38.64C70.4363 38.7787 70.4283 38.9253 70.4123 39.08H66.9083C66.935 39.512 67.0816 39.8507 67.3483 40.096C67.6203 40.336 67.9483 40.456 68.3323 40.456C68.647 40.456 68.9083 40.384 69.1163 40.24C69.3296 40.0907 69.479 39.8933 69.5643 39.648H70.3483C70.231 40.0693 69.9963 40.4133 69.6443 40.68C69.2923 40.9413 68.855 41.072 68.3323 41.072C67.9163 41.072 67.543 40.9787 67.2123 40.792C66.887 40.6053 66.631 40.3413 66.4443 40C66.2576 39.6533 66.1643 39.2533 66.1643 38.8C66.1643 38.3467 66.255 37.9493 66.4363 37.608C66.6176 37.2667 66.871 37.0053 67.1963 36.824C67.527 36.6373 67.9056 36.544 68.3323 36.544C68.7483 36.544 69.1163 36.6347 69.4363 36.816C69.7563 36.9973 70.0016 37.248 70.1723 37.568C70.3483 37.8827 70.4363 38.24 70.4363 38.64ZM69.6843 38.488C69.6843 38.2107 69.623 37.9733 69.5003 37.776C69.3776 37.5733 69.2096 37.4213 68.9963 37.32C68.7883 37.2133 68.5563 37.16 68.3003 37.16C67.9323 37.16 67.6176 37.2773 67.3563 37.512C67.1003 37.7467 66.9536 38.072 66.9163 38.488H69.6843ZM71.1253 38.8C71.1253 38.3467 71.2159 37.952 71.3973 37.616C71.5786 37.2747 71.8293 37.0107 72.1493 36.824C72.4746 36.6373 72.8453 36.544 73.2613 36.544C73.7999 36.544 74.2426 36.6747 74.5893 36.936C74.9413 37.1973 75.1733 37.56 75.2853 38.024H74.5013C74.4266 37.7573 74.2799 37.5467 74.0613 37.392C73.8479 37.2373 73.5813 37.16 73.2613 37.16C72.8453 37.16 72.5093 37.304 72.2533 37.592C71.9973 37.8747 71.8693 38.2773 71.8693 38.8C71.8693 39.328 71.9973 39.736 72.2533 40.024C72.5093 40.312 72.8453 40.456 73.2613 40.456C73.5813 40.456 73.8479 40.3813 74.0613 40.232C74.2746 40.0827 74.4213 39.8693 74.5013 39.592H75.2853C75.1679 40.04 74.9333 40.4 74.5813 40.672C74.2293 40.9387 73.7893 41.072 73.2613 41.072C72.8453 41.072 72.4746 40.9787 72.1493 40.792C71.8293 40.6053 71.5786 40.3413 71.3973 40C71.2159 39.6587 71.1253 39.2587 71.1253 38.8ZM77.1446 37.216V39.8C77.1446 40.0133 77.19 40.1653 77.2806 40.256C77.3713 40.3413 77.5286 40.384 77.7526 40.384H78.2886V41H77.6326C77.2273 41 76.9233 40.9067 76.7206 40.72C76.518 40.5333 76.4166 40.2267 76.4166 39.8V37.216H75.8486V36.616H76.4166V35.512H77.1446V36.616H78.2886V37.216H77.1446ZM79.8987 37.328C80.0267 37.0773 80.208 36.8827 80.4427 36.744C80.6827 36.6053 80.9734 36.536 81.3147 36.536V37.288H81.1227C80.3067 37.288 79.8987 37.7307 79.8987 38.616V41H79.1707V36.616H79.8987V37.328ZM84.0671 41.072C83.6564 41.072 83.2831 40.9787 82.9471 40.792C82.6164 40.6053 82.3551 40.3413 82.1631 40C81.9764 39.6533 81.8831 39.2533 81.8831 38.8C81.8831 38.352 81.9791 37.9573 82.1711 37.616C82.3684 37.2693 82.6351 37.0053 82.9711 36.824C83.3071 36.6373 83.6831 36.544 84.0991 36.544C84.5151 36.544 84.8911 36.6373 85.2271 36.824C85.5631 37.0053 85.8271 37.2667 86.0191 37.608C86.2164 37.9493 86.3151 38.3467 86.3151 38.8C86.3151 39.2533 86.2137 39.6533 86.0111 40C85.8137 40.3413 85.5444 40.6053 85.2031 40.792C84.8617 40.9787 84.4831 41.072 84.0671 41.072ZM84.0671 40.432C84.3284 40.432 84.5737 40.3707 84.8031 40.248C85.0324 40.1253 85.2164 39.9413 85.3551 39.696C85.4991 39.4507 85.5711 39.152 85.5711 38.8C85.5711 38.448 85.5017 38.1493 85.3631 37.904C85.2244 37.6587 85.0431 37.4773 84.8191 37.36C84.5951 37.2373 84.3524 37.176 84.0911 37.176C83.8244 37.176 83.5791 37.2373 83.3551 37.36C83.1364 37.4773 82.9604 37.6587 82.8271 37.904C82.6937 38.1493 82.6271 38.448 82.6271 38.8C82.6271 39.1573 82.6911 39.4587 82.8191 39.704C82.9524 39.9493 83.1284 40.1333 83.3471 40.256C83.5657 40.3733 83.8057 40.432 84.0671 40.432ZM89.4083 36.536C89.9416 36.536 90.3736 36.6987 90.7043 37.024C91.0349 37.344 91.2003 37.808 91.2003 38.416V41H90.4803V38.52C90.4803 38.0827 90.3709 37.7493 90.1523 37.52C89.9336 37.2853 89.6349 37.168 89.2563 37.168C88.8723 37.168 88.5656 37.288 88.3363 37.528C88.1123 37.768 88.0003 38.1173 88.0003 38.576V41H87.2723V36.616H88.0003V37.24C88.1443 37.016 88.3389 36.8427 88.5843 36.72C88.8349 36.5973 89.1096 36.536 89.4083 36.536ZM92.7654 35.904C92.6268 35.904 92.5094 35.856 92.4134 35.76C92.3174 35.664 92.2694 35.5467 92.2694 35.408C92.2694 35.2693 92.3174 35.152 92.4134 35.056C92.5094 34.96 92.6268 34.912 92.7654 34.912C92.8988 34.912 93.0108 34.96 93.1014 35.056C93.1974 35.152 93.2454 35.2693 93.2454 35.408C93.2454 35.5467 93.1974 35.664 93.1014 35.76C93.0108 35.856 92.8988 35.904 92.7654 35.904ZM93.1174 36.616V41H92.3894V36.616H93.1174ZM94.0862 38.8C94.0862 38.3467 94.1769 37.952 94.3582 37.616C94.5395 37.2747 94.7902 37.0107 95.1102 36.824C95.4355 36.6373 95.8062 36.544 96.2222 36.544C96.7609 36.544 97.2035 36.6747 97.5502 36.936C97.9022 37.1973 98.1342 37.56 98.2462 38.024H97.4622C97.3875 37.7573 97.2409 37.5467 97.0222 37.392C96.8089 37.2373 96.5422 37.16 96.2222 37.16C95.8062 37.16 95.4702 37.304 95.2142 37.592C94.9582 37.8747 94.8302 38.2773 94.8302 38.8C94.8302 39.328 94.9582 39.736 95.2142 40.024C95.4702 40.312 95.8062 40.456 96.2222 40.456C96.5422 40.456 96.8089 40.3813 97.0222 40.232C97.2355 40.0827 97.3822 39.8693 97.4622 39.592H98.2462C98.1289 40.04 97.8942 40.4 97.5422 40.672C97.1902 40.9387 96.7502 41.072 96.2222 41.072C95.8062 41.072 95.4355 40.9787 95.1102 40.792C94.7902 40.6053 94.5395 40.3413 94.3582 40C94.1769 39.6587 94.0862 39.2587 94.0862 38.8ZM100.77 41.072C100.434 41.072 100.132 41.016 99.8656 40.904C99.5989 40.7867 99.3882 40.6267 99.2336 40.424C99.0789 40.216 98.9936 39.9787 98.9776 39.712H99.7296C99.7509 39.9307 99.8522 40.1093 100.034 40.248C100.22 40.3867 100.463 40.456 100.762 40.456C101.039 40.456 101.258 40.3947 101.418 40.272C101.578 40.1493 101.658 39.9947 101.658 39.808C101.658 39.616 101.572 39.4747 101.402 39.384C101.231 39.288 100.967 39.1947 100.61 39.104C100.284 39.0187 100.018 38.9333 99.8096 38.848C99.6069 38.7573 99.4309 38.6267 99.2816 38.456C99.1376 38.28 99.0656 38.0507 99.0656 37.768C99.0656 37.544 99.1322 37.3387 99.2656 37.152C99.3989 36.9653 99.5882 36.8187 99.8336 36.712C100.079 36.6 100.359 36.544 100.674 36.544C101.159 36.544 101.551 36.6667 101.85 36.912C102.148 37.1573 102.308 37.4933 102.33 37.92H101.602C101.586 37.6907 101.492 37.5067 101.322 37.368C101.156 37.2293 100.932 37.16 100.65 37.16C100.388 37.16 100.18 37.216 100.026 37.328C99.8709 37.44 99.7936 37.5867 99.7936 37.768C99.7936 37.912 99.8389 38.032 99.9296 38.128C100.026 38.2187 100.143 38.2933 100.282 38.352C100.426 38.4053 100.623 38.4667 100.874 38.536C101.188 38.6213 101.444 38.7067 101.642 38.792C101.839 38.872 102.007 38.9947 102.146 39.16C102.29 39.3253 102.364 39.5413 102.37 39.808C102.37 40.048 102.303 40.264 102.17 40.456C102.036 40.648 101.847 40.8 101.602 40.912C101.362 41.0187 101.084 41.072 100.77 41.072ZM108.466 41L107.138 38.72H106.258V41H105.53V35.424H107.33C107.751 35.424 108.106 35.496 108.394 35.64C108.687 35.784 108.906 35.9787 109.05 36.224C109.194 36.4693 109.266 36.7493 109.266 37.064C109.266 37.448 109.154 37.7867 108.93 38.08C108.711 38.3733 108.381 38.568 107.938 38.664L109.338 41H108.466ZM106.258 38.136H107.33C107.725 38.136 108.021 38.04 108.218 37.848C108.415 37.6507 108.514 37.3893 108.514 37.064C108.514 36.7333 108.415 36.4773 108.218 36.296C108.026 36.1147 107.73 36.024 107.33 36.024H106.258V38.136ZM114.397 38.64C114.397 38.7787 114.389 38.9253 114.373 39.08H110.869C110.896 39.512 111.043 39.8507 111.309 40.096C111.581 40.336 111.909 40.456 112.293 40.456C112.608 40.456 112.869 40.384 113.077 40.24C113.291 40.0907 113.44 39.8933 113.525 39.648H114.309C114.192 40.0693 113.957 40.4133 113.605 40.68C113.253 40.9413 112.816 41.072 112.293 41.072C111.877 41.072 111.504 40.9787 111.173 40.792C110.848 40.6053 110.592 40.3413 110.405 40C110.219 39.6533 110.125 39.2533 110.125 38.8C110.125 38.3467 110.216 37.9493 110.397 37.608C110.579 37.2667 110.832 37.0053 111.157 36.824C111.488 36.6373 111.867 36.544 112.293 36.544C112.709 36.544 113.077 36.6347 113.397 36.816C113.717 36.9973 113.963 37.248 114.133 37.568C114.309 37.8827 114.397 38.24 114.397 38.64ZM113.645 38.488C113.645 38.2107 113.584 37.9733 113.461 37.776C113.339 37.5733 113.171 37.4213 112.957 37.32C112.749 37.2133 112.517 37.16 112.261 37.16C111.893 37.16 111.579 37.2773 111.317 37.512C111.061 37.7467 110.915 38.072 110.877 38.488H113.645ZM116.086 37.424C116.23 37.1733 116.444 36.9653 116.726 36.8C117.014 36.6293 117.348 36.544 117.726 36.544C118.116 36.544 118.468 36.6373 118.782 36.824C119.102 37.0107 119.353 37.2747 119.534 37.616C119.716 37.952 119.806 38.344 119.806 38.792C119.806 39.2347 119.716 39.6293 119.534 39.976C119.353 40.3227 119.102 40.592 118.782 40.784C118.468 40.976 118.116 41.072 117.726 41.072C117.353 41.072 117.022 40.9893 116.734 40.824C116.452 40.6533 116.236 40.4427 116.086 40.192V43.08H115.358V36.616H116.086V37.424ZM119.062 38.792C119.062 38.4613 118.996 38.1733 118.862 37.928C118.729 37.6827 118.548 37.496 118.318 37.368C118.094 37.24 117.846 37.176 117.574 37.176C117.308 37.176 117.06 37.2427 116.83 37.376C116.606 37.504 116.425 37.6933 116.286 37.944C116.153 38.1893 116.086 38.4747 116.086 38.8C116.086 39.1307 116.153 39.4213 116.286 39.672C116.425 39.9173 116.606 40.1067 116.83 40.24C117.06 40.368 117.308 40.432 117.574 40.432C117.846 40.432 118.094 40.368 118.318 40.24C118.548 40.1067 118.729 39.9173 118.862 39.672C118.996 39.4213 119.062 39.128 119.062 38.792ZM120.492 38.792C120.492 38.344 120.583 37.952 120.764 37.616C120.946 37.2747 121.194 37.0107 121.508 36.824C121.828 36.6373 122.183 36.544 122.572 36.544C122.956 36.544 123.29 36.6267 123.572 36.792C123.855 36.9573 124.066 37.1653 124.204 37.416V36.616H124.94V41H124.204V40.184C124.06 40.44 123.844 40.6533 123.556 40.824C123.274 40.9893 122.943 41.072 122.564 41.072C122.175 41.072 121.823 40.976 121.508 40.784C121.194 40.592 120.946 40.3227 120.764 39.976C120.583 39.6293 120.492 39.2347 120.492 38.792ZM124.204 38.8C124.204 38.4693 124.138 38.1813 124.004 37.936C123.871 37.6907 123.69 37.504 123.46 37.376C123.236 37.2427 122.988 37.176 122.716 37.176C122.444 37.176 122.196 37.24 121.972 37.368C121.748 37.496 121.57 37.6827 121.436 37.928C121.303 38.1733 121.236 38.4613 121.236 38.792C121.236 39.128 121.303 39.4213 121.436 39.672C121.57 39.9173 121.748 40.1067 121.972 40.24C122.196 40.368 122.444 40.432 122.716 40.432C122.988 40.432 123.236 40.368 123.46 40.24C123.69 40.1067 123.871 39.9173 124.004 39.672C124.138 39.4213 124.204 39.1307 124.204 38.8ZM126.547 35.904C126.408 35.904 126.291 35.856 126.195 35.76C126.099 35.664 126.051 35.5467 126.051 35.408C126.051 35.2693 126.099 35.152 126.195 35.056C126.291 34.96 126.408 34.912 126.547 34.912C126.68 34.912 126.792 34.96 126.883 35.056C126.979 35.152 127.027 35.2693 127.027 35.408C127.027 35.5467 126.979 35.664 126.883 35.76C126.792 35.856 126.68 35.904 126.547 35.904ZM126.899 36.616V41H126.171V36.616H126.899ZM128.867 37.328C128.995 37.0773 129.177 36.8827 129.411 36.744C129.651 36.6053 129.942 36.536 130.283 36.536V37.288H130.091C129.275 37.288 128.867 37.7307 128.867 38.616V41H128.139V36.616H128.867V37.328ZM132.676 41.072C132.34 41.072 132.038 41.016 131.772 40.904C131.505 40.7867 131.294 40.6267 131.14 40.424C130.985 40.216 130.9 39.9787 130.884 39.712H131.636C131.657 39.9307 131.758 40.1093 131.94 40.248C132.126 40.3867 132.369 40.456 132.668 40.456C132.945 40.456 133.164 40.3947 133.324 40.272C133.484 40.1493 133.564 39.9947 133.564 39.808C133.564 39.616 133.478 39.4747 133.308 39.384C133.137 39.288 132.873 39.1947 132.516 39.104C132.19 39.0187 131.924 38.9333 131.716 38.848C131.513 38.7573 131.337 38.6267 131.188 38.456C131.044 38.28 130.972 38.0507 130.972 37.768C130.972 37.544 131.038 37.3387 131.172 37.152C131.305 36.9653 131.494 36.8187 131.74 36.712C131.985 36.6 132.265 36.544 132.58 36.544C133.065 36.544 133.457 36.6667 133.756 36.912C134.054 37.1573 134.214 37.4933 134.236 37.92H133.508C133.492 37.6907 133.398 37.5067 133.228 37.368C133.062 37.2293 132.838 37.16 132.556 37.16C132.294 37.16 132.086 37.216 131.932 37.328C131.777 37.44 131.7 37.5867 131.7 37.768C131.7 37.912 131.745 38.032 131.836 38.128C131.932 38.2187 132.049 38.2933 132.188 38.352C132.332 38.4053 132.529 38.4667 132.78 38.536C133.094 38.6213 133.35 38.7067 133.548 38.792C133.745 38.872 133.913 38.9947 134.052 39.16C134.196 39.3253 134.27 39.5413 134.276 39.808C134.276 40.048 134.209 40.264 134.076 40.456C133.942 40.648 133.753 40.8 133.508 40.912C133.268 41.0187 132.99 41.072 132.676 41.072Z" fill="white"/>
</svg>
