<svg width="84" height="84" viewBox="0 0 84 84" fill="none" xmlns="http://www.w3.org/2000/svg">
<rect x="6" y="6" width="72" height="72" rx="36" fill="#E0EAFF"/>
<rect x="6" y="6" width="72" height="72" rx="36" stroke="#EEF4FF" stroke-width="12"/>
<path d="M46.05 33.4503C45.7752 33.7307 45.6212 34.1077 45.6212 34.5003C45.6212 34.893 45.7752 35.2699 46.05 35.5503L48.45 37.9503C48.7304 38.2252 49.1074 38.3791 49.5 38.3791C49.8927 38.3791 50.2696 38.2252 50.55 37.9503L56.205 32.2953C56.9593 33.9621 57.1877 35.8192 56.8597 37.6191C56.5318 39.4189 55.6631 41.0761 54.3694 42.3698C53.0758 43.6634 51.4186 44.5321 49.6187 44.86C47.8189 45.188 45.9618 44.9596 44.295 44.2053L33.93 54.5703C33.3333 55.1671 32.5239 55.5023 31.68 55.5023C30.8361 55.5023 30.0268 55.1671 29.43 54.5703C28.8333 53.9736 28.498 53.1642 28.498 52.3203C28.498 51.4764 28.8333 50.6671 29.43 50.0703L39.795 39.7053C39.0408 38.0386 38.8124 36.1815 39.1403 34.3816C39.4683 32.5818 40.337 30.9246 41.6306 29.6309C42.9243 28.3373 44.5814 27.4686 46.3813 27.1406C48.1812 26.8127 50.0382 27.0411 51.705 27.7953L46.065 33.4353L46.05 33.4503Z" stroke="#444CE7" stroke-width="3" stroke-linecap="round" stroke-linejoin="round"/>
</svg>
