<svg width="84" height="84" viewBox="0 0 84 84" fill="none" xmlns="http://www.w3.org/2000/svg">
<rect x="6" y="6" width="72" height="72" rx="36" fill="#E0EAFF"/>
<rect x="6" y="6" width="72" height="72" rx="36" stroke="#EEF4FF" stroke-width="12"/>
<path d="M57 40.62V42C56.9982 45.2346 55.9508 48.382 54.014 50.9727C52.0773 53.5635 49.3549 55.4587 46.253 56.3759C43.1511 57.293 39.8359 57.1829 36.8017 56.0619C33.7675 54.9409 31.177 52.8692 29.4164 50.1556C27.6559 47.4421 26.8197 44.2321 27.0325 41.0045C27.2453 37.7768 28.4958 34.7045 30.5974 32.2456C32.699 29.7867 35.5392 28.0731 38.6943 27.3602C41.8494 26.6474 45.1504 26.9735 48.105 28.29M57 30L42 45.015L37.5 40.515" stroke="#444CE7" stroke-width="3" stroke-linecap="round" stroke-linejoin="round"/>
</svg>
